<svg width="82.393555" height="82.358276" viewBox="0 0 82.3936 82.3583" fill="none" xmlns="http://www.w3.org/2000/svg" xmlns:xlink="http://www.w3.org/1999/xlink">
	<desc>
			Created with Pixso.
	</desc>
	<defs/>
	<circle id="Ellipse" r="39.660709" transform="matrix(1 1 -5.55112e-17 5.55112e-17 41.2236 41.1617)" fill="#37393F" fill-opacity="1.000000"/>
	<path id="Ellipse" d="M31.1426 4.35681Q16.5527 8.35303 8.66309 21.2799Q0.769531 34.1772 3.8877 49.0037Q6.98047 63.8052 19.4131 72.4634Q31.8115 81.1206 46.7988 78.9026Q61.7598 76.7081 71.1523 64.8201Q80.541 52.9669 79.2314 37.873Q77.9434 22.8068 66.6436 12.7145Q55.3848 2.63293 40.2324 3.01404L40.1572 0.0150146Q56.499 -0.395996 68.6416 10.4769Q80.8311 21.3635 82.2207 37.6136Q83.6328 53.8953 73.5059 66.6798Q63.375 79.5034 47.2383 81.8704Q31.0713 84.2627 17.6992 74.9253Q4.28809 65.5858 0.952148 49.6211Q-2.41113 33.6281 6.10254 19.7172Q14.6113 5.77405 30.3496 1.46338L31.1426 4.35681Z" fill="#40DDB6" fill-opacity="1.000000" fill-rule="evenodd"/>
	<path id="95%" d="M25.5254 43.0601Q25.6816 43.9438 26.2529 44.4126Q26.8242 44.8813 27.7812 44.8813Q29.0215 44.8813 29.583 43.8511Q30.1445 42.8208 30.1445 40.3794Q29.6855 41.0239 28.8555 41.3853Q28.0254 41.7417 27.0635 41.7417Q25.7842 41.7417 24.7539 41.2144Q23.7236 40.6821 23.123 39.6323Q22.5225 38.5825 22.5225 37.0835Q22.5225 34.8618 23.8408 33.5532Q25.1641 32.2397 27.4443 32.2397Q30.2812 32.2397 31.4531 34.061Q32.625 35.8823 32.625 39.5396Q32.625 42.1421 32.1709 43.8022Q31.7217 45.4624 30.6328 46.3218Q29.5439 47.1812 27.6641 47.1812Q26.1846 47.1812 25.1445 46.6147Q24.1045 46.0435 23.5527 45.1157Q23.0059 44.1831 22.9229 43.0601L25.5254 43.0601ZM27.6445 39.4614Q28.6846 39.4614 29.2852 38.8218Q29.8857 38.1821 29.8857 37.103Q29.8857 35.9214 29.2559 35.272Q28.626 34.6226 27.542 34.6226Q26.4629 34.6226 25.833 35.2915Q25.2031 35.9604 25.2031 37.064Q25.2031 38.1235 25.8135 38.7925Q26.4238 39.4614 27.6445 39.4614ZM44.603 35.0034L38.1235 35.0034L38.1235 38.4214Q38.5434 37.9038 39.3247 37.5718Q40.1059 37.2397 40.9848 37.2397Q42.5815 37.2397 43.602 37.9429Q44.6225 38.6411 45.0815 39.7349Q45.5454 40.8237 45.5454 42.064Q45.5454 44.3638 44.2319 45.7651Q42.9233 47.1616 40.5014 47.1616Q38.2261 47.1616 36.8638 46.0239Q35.5014 44.8813 35.3257 43.0405L38.0454 43.0405Q38.2261 43.8413 38.8559 44.3247Q39.4858 44.8032 40.4624 44.8032Q41.644 44.8032 42.2446 44.0659Q42.8452 43.3237 42.8452 42.103Q42.8452 40.8628 42.2348 40.2134Q41.6245 39.564 40.4429 39.564Q39.603 39.564 39.0415 39.9839Q38.4848 40.4038 38.2456 41.1021L35.5649 41.1021L35.5649 32.5425L44.603 32.5425L44.603 35.0034ZM47.3658 36.1606Q47.3658 34.6421 48.2545 33.7827Q49.1432 32.9233 50.5445 32.9233Q51.9459 32.9233 52.8346 33.7827Q53.7232 34.6421 53.7232 36.1606Q53.7232 37.7036 52.8346 38.563Q51.9459 39.4224 50.5445 39.4224Q49.1432 39.4224 48.2545 38.563Q47.3658 37.7036 47.3658 36.1606ZM60.2027 33.1626L52.3414 47.1616L49.6217 47.1616L57.4635 33.1626L60.2027 33.1626ZM50.525 34.603Q49.4215 34.603 49.4215 36.1606Q49.4215 37.7427 50.525 37.7427Q51.0621 37.7427 51.36 37.3521Q51.6627 36.9614 51.6627 36.1606Q51.6627 34.603 50.525 34.603ZM56.1451 44.144Q56.1451 42.6011 57.0338 41.7515Q57.9225 40.9019 59.3238 40.9019Q60.7252 40.9019 61.5943 41.7515Q62.4635 42.6011 62.4635 44.144Q62.4635 45.6821 61.5943 46.5415Q60.7252 47.4009 59.3238 47.4009Q57.9029 47.4009 57.024 46.5415Q56.1451 45.6821 56.1451 44.144ZM59.3043 42.5815Q58.1617 42.5815 58.1617 44.144Q58.1617 45.7212 59.3043 45.7212Q60.4225 45.7212 60.4225 44.144Q60.4225 42.5815 59.3043 42.5815Z" fill="#FFFFFF" fill-opacity="1.000000" fill-rule="evenodd"/>
</svg>
